<?xml version="1.0" ?><!DOCTYPE svg  PUBLIC '-//W3C//DTD SVG 1.1//EN'  'http://www.w3.org/Graphics/SVG/1.1/DTD/svg11.dtd'><svg enable-background="new 0 0 512 512" height="512px" id="Layer_1" version="1.1" viewBox="0 0 512 512" width="512px" xml:space="preserve" xmlns="http://www.w3.org/2000/svg" xmlns:xlink="http://www.w3.org/1999/xlink"><path d="M161.512,181.426c8.798,0,16.955-2.732,23.685-7.379l67.393,40.34c-0.09,1.118-0.169,2.237-0.169,3.381  c0,23.071,18.707,41.773,41.777,41.773c23.069,0,41.772-18.703,41.772-41.773c0-5.221-1.004-10.193-2.746-14.803l78.155-83.862  l45.905,39.687l27.75-147.782L342.808,59.822l40.614,35.11l-77.191,82.836c-3.813-1.146-7.85-1.776-12.03-1.776  c-8.353,0-16.116,2.477-22.646,6.702l-68.369-40.925c0.034-0.708,0.105-1.401,0.105-2.116c0-23.072-18.702-41.774-41.777-41.774  c-23.068,0-41.771,18.702-41.771,41.774c0,3.994,0.595,7.842,1.64,11.498l-55.657,51.147v50.16l80.486-73.961  C150.955,180.365,156.103,181.426,161.512,181.426 M161.512,331.356c11.531,0,21.966-4.674,29.527-12.223l120.029,44.724  c2.114,21.09,19.915,37.561,41.559,37.561c23.074,0,41.776-18.709,41.776-41.78c0-5.641-1.132-11.019-3.161-15.927l70.364-79.944  l27.165,20.956l13.118-100.428l-93.815,38.17l24.232,18.7l-68.815,78.179c-3.473-0.933-7.099-1.476-10.866-1.476  c-11.089,0-21.143,4.35-28.621,11.402l-121.11-45.124c-2.67-20.5-20.152-36.339-41.382-36.339c-23.068,0-41.771,18.7-41.771,41.772  c0,1.153,0.075,2.289,0.171,3.416l-54.188,33.346v43.373l73.183-45.033C145.429,328.886,153.176,331.356,161.512,331.356   M36.931,475.073v-0.468h-1.254V0H0.002v512h511.996v-36.927H36.931z"/></svg>